# AST/ASF file generated using VICON BodyLanguage
# -----------------------------------------------
:version 1.10
:name VICON
:units
  mass 1.0
  length 0.45
  angle deg
:documentation
   .ast/.asf automatically generated from VICON data using
   VICON BodyBuilder and BodyLanguage model FoxedUp or BRILLIANT.MOD
:root
   order TX TY TZ RX RY RZ
   axis XYZ
   position 0 0 0  
   orientation 0 0 0 
:bonedata
  begin
     id 1 
     name lhipjoint
     direction 0.541323 -0.757556 0.364798 
     length 2.47576 
     axis 0 0 0  XYZ
  end
  begin
     id 2 
     name lfemur
     direction 0.34202 -0.939693 0  
     length 7.46493  
     axis 0 0 20  XYZ
    dof rx ry rz
    limits (-160.0 20.0)
           (-70.0 70.0)
           (-60.0 70.0)
  end
  begin
     id 3 
     name ltibia
     direction 0.34202 -0.939693 0   
     length 7.73805   
     axis 0 0 20   XYZ
    dof rx
    limits (-10.0 170.0)
  end
  begin
     id 4 
     name lfoot
     direction 0.107174 -0.294458 0.949636   
     length 2.25864   
     axis -90 7.62852e-016 20   XYZ
    dof rx rz
    limits (-45.0 90.0)
           (-70.0 20.0)
  end
  begin
     id 5 
     name ltoes
     direction 1.53606e-011 -4.21934e-011 1   
     length 1.12451   
     axis -90 7.62852e-016 20   XYZ
    dof rx
    limits (-90.0 20.0)
  end
  begin
     id 6 
     name rhipjoint
     direction -0.524745 -0.766967 0.36933   
     length 2.44538  
     axis 0 0 0  XYZ 
  end
  begin
     id 7 
     name rfemur
     direction -0.34202 -0.939693 0   
     length 7.61604   
     axis 0 0 -20   XYZ
    dof rx ry rz
    limits (-160.0 20.0)
           (-70.0 70.0)
           (-70.0 60.0)
  end
  begin
     id 8 
     name rtibia
     direction -0.34202 -0.939693 0   
     length 7.61056   
     axis 0 0 -20   XYZ
    dof rx
    limits (-10.0 170.0)
 end
 begin
     id 9 
     name rfoot
     direction -0.12616 -0.346623 0.929482   
     length 2.46372  
     axis -90 -7.62852e-016 -20   XYZ
    dof rx rz
    limits (-45.0 90.0)
           (-20.0 70.0)
  end
  begin
     id 10 
     name rtoes
     direction -1.53531e-011 -4.22004e-011 1   
     length 1.21611   
     axis -90 -7.62852e-016 -20   XYZ
    dof rx
    limits (-90.0 20.0)
  end
  begin
     id 11 
     name lowerback
     direction -0.000778023 0.997293 -0.0735223   
     length 2.06139   
     axis 0 0 0   XYZ
    dof rx ry rz
    limits (-20.0 45.0)
           (-30.0 30.0)
           (-30.0 30.0)
  end
  begin
     id 12 
     name upperback
     direction 0.0222598 0.999722 -0.0078355   
     length 2.06383   
     axis 0 0 0   XYZ
    dof rx ry rz
    limits (-20.0 45.0)
           (-30.0 30.0)
           (-30.0 30.0)
  end
  begin
     id 13 
     name thorax
     direction 0.0219654 0.999405 0.0265994   
     length 2.07163   
     axis 0 0 0   XYZ
    dof rx ry rz
    limits (-20.0 45.0)
           (-30.0 30.0)
           (-30.0 30.0)
  end
  begin
     id 14 
     name lowerneck
     direction 0.0213282 0.988147 0.15202   
     length 1.75969   
     axis 0 0 0   XYZ
    dof rx ry rz
    limits (-20.0 45.0)
           (-30.0 30.0)
           (-30.0 30.0)
  end
  begin
     id 15 
     name upperneck
     direction -0.0546456 0.982624 -0.177379   
     length 1.79244   
     axis 0 0 0   XYZ
    dof rx ry rz
    limits (-20.0 45.0)
           (-30.0 30.0)
           (-30.0 30.0)
  end
  begin
     id 16
     name head
     direction -0.0199987 0.996855 -0.076686  
     length 1.80555  
     axis 0 0 0   XYZ
    dof rx ry rz
    limits (-20.0 45.0)
           (-30.0 30.0)
           (-30.0 30.0)
  end
  begin
     id 17 
     name lclavicle
     direction 0.929565 0.363219 -0.063096  
     length 3.55722  
     axis 0 0 0   XYZ
    dof ry rz
    limits (-20.0 10.0)
           (0.0 20.0)
  end
  begin
     id 18 
     name lhumerus
     direction 1 -4.48993e-011 -2.36203e-027   
     length 4.92785   
     axis 180 -30 -90   XYZ
    dof rx ry rz
    limits (-60.0 90.0)
           (-90.0 90.0)
           (-90.0 90.0)
  end
  begin
     id 19
     name lradius
     direction 1 -4.48947e-011 2.02997e-027   
     length 3.44052   
     axis 180 -30 -90   XYZ
    dof rx
    limits (-10.0 170.0)
  end
  begin
     id 20
     name lwrist
     direction 1 -4.48962e-011 1.45991e-027   
     length 1.72026   
     axis 1.49639e-024 90 90   XYZ
    dof ry
    limits (-180.0 0.0)
 end
  begin
     id 21 
     name lhand
     direction 1 -4.48984e-011 2.91906e-027   
     length 0.654326   
     axis -1.863e-015 90 90   XYZ
    dof rx rz
    limits (-90.0 90.0)
           (-45.0 45.0)
  end
  begin
     id 22 
     name lfingers
     direction 1 -4.48961e-011 5.83968e-027   
     length 0.527534   
     axis -3.72598e-015 90 90   XYZ
    dof rx
    limits (0.0 90.0)
  end
  begin
     id 23
     name lthumb
     direction 0.707107 -6.34963e-011 0.707107   
     length 0.757437   
     axis -90 45 -6.68868e-015   XYZ
    dof rx rz
    limits (-45.0 45.0)
           (-45.0 45.0)
  end
  begin
     id 24 
     name rclavicle
     direction -0.902944 0.422599 -0.0781198   
     length 3.54432  
     axis 0 0 0   XYZ 
    dof ry rz
    limits (-10.0 20.0)
           (-20.0 0.0)
  end
  begin
     id 25 
     name rhumerus
     direction -1 -4.48953e-011 -4.75835e-028  
     length 5.09181   
     axis 180 30 90   XYZ
    dof rx ry rz
    limits (-90.0 60.0)
           (-90.0 90.0)
           (-90.0 90.0)
  end
  begin
     id 26 
     name rradius
     direction -1 -4.48986e-011 -3.25889e-027   
     length 3.49865   
     axis 180 30 90   XYZ
    dof rx
    limits (-10.0 170.0)
  end
  begin
     id 27 
     name rwrist
     direction -1 -4.48963e-011 1.45989e-027   
     length 1.74933   
     axis 1.49639e-024 -90 -90   XYZ
    dof ry
    limits (-180.0 0.0)
  end
  begin
     id 28
     name rhand
     direction -1 -4.49003e-011 2.91844e-027   
     length 0.66641   
     axis -1.863e-015 -90 -90   XYZ
    dof rx rz
    limits (-90.0 90.0)
           (-45.0 45.0)
  end
  begin
     id 29
     name rfingers
     direction -1 -4.48973e-011 5.83886e-027   
     length 0.537277   
     axis -3.72598e-015 -90 -90   XYZ
    dof rx
    limits (0.0 90.0)
  end
  begin
     id 30
     name rthumb
     direction -0.707107 -6.34976e-011 0.707107   
     length 0.771425   
     axis -90 -45 6.68868e-015   XYZ
    dof rx rz
    limits (-45.0 45.0)
           (-45.0 45.0)
  end
:hierarchy
  begin
    root lhipjoint rhipjoint lowerback
    lhipjoint lfemur
    lfemur ltibia
    ltibia lfoot
    lfoot ltoes
    rhipjoint rfemur
    rfemur rtibia
    rtibia rfoot
    rfoot rtoes
    lowerback upperback
    upperback thorax
    thorax lowerneck lclavicle rclavicle
    lowerneck upperneck
    upperneck head
    lclavicle lhumerus
    lhumerus lradius
    lradius lwrist
    lwrist lhand lthumb
    lhand lfingers
    rclavicle rhumerus
    rhumerus rradius
    rradius rwrist
    rwrist rhand rthumb
    rhand rfingers
  end

#!OML:ASF H:\LiuWeirdWalks\Patient Classification 1\Patient 1\Session 1\male.ASF
:FULLY-SPECIFIED
:DEGREES
250
root 0.0828185 17.8373 -27.4108 1.84357 5.86469 2.71007
lowerback 5.6538 -0.50165 -2.3637
upperback 0.882145 -0.770703 1.60557
thorax -2.20751 -0.361357 3.04058
lowerneck -14.2593 -0.845916 3.4838
upperneck 23.8628 -0.832168 -4.79839
head 9.87926 -0.617439 -2.37631
rclavicle 1.05356e-014 -2.78299e-014
rhumerus -23.6966 -23.9754 0.85562
rradius 29.7546
rwrist 0.836911
rhand -20.135 -3.49395
rfingers 7.12502
rthumb 6.20949 -33.3829
lclavicle 1.05356e-014 -2.78299e-014
lhumerus -16.7714 19.9517 12.0217
lradius 31.6773
lwrist -1.45092
lhand -10.9065 6.41333
lfingers 7.12502
lthumb 15.1106 35.8417
rfemur -9.47301 -2.67265 7.58808
rtibia 30.277
rfoot -10.4526 -24.464
rtoes -4.57527
lfemur -7.42339 -0.911756 -18.0777
ltibia 24.8231
lfoot -9.09294 17.8988
ltoes -8.5474
251
root 0.0745746 17.8376 -27.4109 1.86525 5.90806 2.72296
lowerback 5.66344 -0.594012 -2.42448
upperback 0.889498 -0.895564 1.68811
thorax -2.1943 -0.423282 3.16951
lowerneck -14.4474 -0.872132 3.41565
upperneck 24.2635 -0.796455 -4.99578
head 10.0595 -0.630755 -2.44205
rclavicle -2.17669e-014 9.54166e-015
rhumerus -23.2044 -23.9108 0.619089
rradius 29.7704
rwrist 0.823353
rhand -20.097 -3.45024
rfingers 7.12502
rthumb 6.2462 -33.3381
lclavicle -2.17669e-014 9.54166e-015
lhumerus -17.2699 20.1594 12.024
lradius 31.8608
lwrist -1.4004
lhand -11.0161 6.41198
lfingers 7.12502
lthumb 15.005 35.8483
rfemur -9.53305 -2.65135 7.62516
rtibia 30.3558
rfoot -10.503 -24.5971
rtoes -4.36994
lfemur -7.44607 -0.944521 -18.0618
ltibia 24.807
lfoot -9.07963 17.8833
ltoes -8.5371
252
root 0.0653764 17.8381 -27.4108 1.88594 5.94616 2.71135
lowerback 5.68163 -0.623699 -2.42866
upperback 0.930364 -0.934788 1.7234
thorax -2.15882 -0.443845 3.21112
lowerneck -14.4354 -0.864252 3.38291
upperneck 24.2467 -0.776187 -4.9993
head 10.0524 -0.624764 -2.43464
rclavicle -9.93923e-017 3.97569e-015
rhumerus -22.9737 -23.8938 0.483968
rradius 29.8191
rwrist 0.770318
rhand -20.0568 -3.39077
rfingers 7.12502
rthumb 6.28501 -33.2775
lclavicle -9.93923e-017 3.97569e-015
lhumerus -17.5146 20.3954 12.1142
lradius 32.0609
lwrist -1.34443
lhand -11.1287 6.38254
lfingers 7.12502
lthumb 14.8965 35.8269
rfemur -9.59254 -2.5898 7.69958
rtibia 30.4293
rfoot -10.5483 -24.7653
rtoes -4.14297
lfemur -7.47176 -0.970289 -18.0147
ltibia 24.7924
lfoot -9.06279 17.8674
ltoes -8.53802
253
root 0.0554701 17.8387 -27.4104 1.90647 5.97566 2.69532
lowerback 5.71229 -0.658633 -2.44925
upperback 0.96862 -0.981831 1.77567
thorax -2.13178 -0.467999 3.28039
lowerneck -14.4108 -0.857817 3.32933
upperneck 24.2111 -0.746924 -5.02562
head 10.0365 -0.619131 -2.43001
rclavicle 1.15295e-014 1.90833e-014
rhumerus -22.7 -23.9034 0.345888
rradius 29.8627
rwrist 0.749926
rhand -20.0141 -3.32582
rfingers 7.12502
rthumb 6.32622 -33.2113
lclavicle 1.15295e-014 1.90833e-014
lhumerus -17.825 20.6088 12.1912
lradius 32.3124
lwrist -1.26806
lhand -11.2063 6.31491
lfingers 7.12502
lthumb 14.8218 35.7648
rfemur -9.65161 -2.50024 7.78456
rtibia 30.4991
rfoot -10.5842 -24.9517
rtoes -3.90346
lfemur -7.49575 -0.99201 -17.9608
ltibia 24.7779
lfoot -9.04538 17.8572
ltoes -8.54797
254
root 0.0448009 17.8394 -27.4099 1.92466 6.00213 2.66583
lowerback 5.7593 -0.673324 -2.44447
upperback 0.981341 -1.00109 1.81004
thorax -2.14296 -0.477519 3.31545
lowerneck -14.4369 -0.837884 3.32756
upperneck 24.2743 -0.713668 -5.0395
head 10.0658 -0.605647 -2.43235
rclavicle -1.69961e-014 1.59028e-014
rhumerus -22.5238 -23.8671 0.244608
rradius 29.9189
rwrist 0.742811
rhand -19.9767 -3.27839
rfingers 7.12502
rthumb 6.36228 -33.1628
lclavicle -1.69961e-014 1.59028e-014
lhumerus -18.0861 20.6872 12.2893
lradius 32.6144
lwrist -1.13362
lhand -11.2944 6.2528
lfingers 7.12502
lthumb 14.7369 35.7089
rfemur -9.70774 -2.38274 7.89023
rtibia 30.5668
rfoot -10.6192 -25.1547
rtoes -3.64588
lfemur -7.51791 -1.01372 -17.8892
ltibia 24.7616
lfoot -9.02514 17.8502
ltoes -8.56709
255
root 0.0337959 17.84 -27.4091 1.94264 6.02991 2.64524
lowerback 5.80474 -0.656859 -2.41335
upperback 0.994485 -0.978189 1.80254
thorax -2.15719 -0.466226 3.28912
lowerneck -14.4842 -0.859649 3.31293
upperneck 24.3642 -0.757301 -4.97029
head 10.1057 -0.619193 -2.41355
rclavicle -1.64991e-014 2.46493e-014
rhumerus -22.495 -23.8512 0.196287
rradius 29.9813
rwrist 0.753372
rhand -19.9275 -3.24178
rfingers 7.12502
rthumb 6.40979 -33.1248
lclavicle -1.64991e-014 2.46493e-014
lhumerus -18.2154 20.7107 12.4245
lradius 32.9355
lwrist -0.998791
lhand -11.3542 6.18227
lfingers 7.12502
lthumb 14.6792 35.6426
rfemur -9.75967 -2.2603 7.98597
rtibia 30.6349
rfoot -10.6651 -25.3566
rtoes -3.36822
lfemur -7.53675 -1.04731 -17.8284
ltibia 24.7436
lfoot -9.00522 17.8555
ltoes -8.5895
256
root 0.0225061 17.8404 -27.4079 1.96211 6.07023 2.64209
lowerback 5.84105 -0.662608 -2.41186
upperback 1.01428 -0.986238 1.80767
thorax -2.15639 -0.470496 3.29463
lowerneck -14.5347 -0.860898 3.30374
upperneck 24.4389 -0.761454 -4.94921
head 10.1424 -0.619725 -2.4075
rclavicle 1.43125e-014 -1.51076e-014
rhumerus -22.3886 -23.8698 0.125449
rradius 30.0292
rwrist 0.797573
rhand -19.8641 -3.21692
rfingers 7.12502
rthumb 6.47105 -33.0981
lclavicle 1.43125e-014 -1.51076e-014
lhumerus -18.4216 20.7413 12.5362
lradius 33.285
lwrist -0.866207
lhand -11.4208 6.12487
lfingers 7.12502
lthumb 14.6151 35.5899
rfemur -9.80654 -2.15042 8.06177
rtibia 30.7045
rfoot -10.7065 -25.5553
rtoes -3.10546
lfemur -7.5542 -1.09579 -17.7868
ltibia 24.7247
lfoot -8.98545 17.8642
ltoes -8.60417
257
root 0.0108894 17.8405 -27.4063 1.98332 6.12048 2.64002
lowerback 5.8653 -0.668057 -2.40833
upperback 1.03973 -0.993655 1.80857
thorax -2.14319 -0.474762 3.29425
lowerneck -14.5808 -0.859296 3.29923
upperneck 24.4828 -0.766197 -4.91784
head 10.1672 -0.618895 -2.39786
rclavicle 2.68359e-014 -1.51076e-014
rhumerus -22.3002 -23.9258 0.0717824
rradius 30.0661
rwrist 0.85598
rhand -19.7742 -3.18058
rfingers 7.12502
rthumb 6.55777 -33.059
lclavicle 2.68359e-014 -1.51076e-014
lhumerus -18.6039 20.7759 12.6523
lradius 33.6387
lwrist -0.746455
lhand -11.476 6.05379
lfingers 7.12502
lthumb 14.5619 35.5227
rfemur -9.85148 -2.04592 8.13739
rtibia 30.7762
rfoot -10.7482 -25.7578
rtoes -2.85971
lfemur -7.5737 -1.15003 -17.745
ltibia 24.7067
lfoot -8.96887 17.8704
ltoes -8.61043
258
root -0.00104799 17.8404 -27.4042 2.00625 6.18181 2.63599
lowerback 5.8815 -0.680682 -2.41291
upperback 1.05776 -1.01078 1.81813
thorax -2.13212 -0.483671 3.3081
lowerneck -14.6129 -0.813591 3.33803
upperneck 24.5027 -0.714855 -4.90659
head 10.183 -0.590476 -2.39489
rclavicle -1.87852e-014 2.14687e-014
rhumerus -22.1994 -23.9574 0.0244087
rradius 30.1024
rwrist 0.875521
rhand -19.6622 -3.13558
rfingers 7.12502
rthumb 6.66594 -33.0107
lclavicle -1.87852e-014 2.14687e-014
lhumerus -18.7939 20.8393 12.7625
lradius 33.9808
lwrist -0.675976
lhand -11.5036 5.94769
lfingers 7.12502
lthumb 14.5353 35.4185
rfemur -9.89559 -1.95054 8.21646
rtibia 30.8501
rfoot -10.7877 -25.9619
rtoes -2.63546
lfemur -7.59697 -1.20632 -17.6987
ltibia 24.6901
lfoot -8.9532 17.8691
ltoes -8.61633
259
root -0.01342 17.8403 -27.4018 2.03006 6.249 2.62157
lowerback 5.90359 -0.709893 -2.42789
upperback 1.07187 -1.05018 1.85135
thorax -2.12604 -0.503444 3.35416
lowerneck -14.6323 -0.750336 3.37791
upperneck 24.4895 -0.628869 -4.9363
head 10.1859 -0.550827 -2.40133
rclavicle 8.15017e-015 3.97569e-015
rhumerus -22.0327 -23.9759 -0.0372404
rradius 30.132
rwrist 0.872589
rhand -19.5504 -3.10153
rfingers 7.12502
rthumb 6.77388 -32.9732
lclavicle 8.15017e-015 3.97569e-015
lhumerus -19.0523 20.9261 12.842
lradius 34.3213
lwrist -0.661894
lhand -11.514 5.82567
lfingers 7.12502
lthumb 14.5253 35.2972
rfemur -9.94093 -1.85987 8.30905
rtibia 30.926
rfoot -10.8235 -26.1655
rtoes -2.43142
lfemur -7.62486 -1.25765 -17.6375
ltibia 24.6762
lfoot -8.93681 17.8582
ltoes -8.62739
260
root -0.0262916 17.8402 -27.3992 2.05969 6.32719 2.6006
lowerback 5.92029 -0.752174 -2.44973
upperback 1.07802 -1.10699 1.89842
thorax -2.12335 -0.531679 3.41977
lowerneck -14.6417 -0.647579 3.45168
upperneck 24.4649 -0.487485 -4.99828
head 10.1853 -0.486247 -2.41759
rclavicle 7.25564e-015 -1.66979e-014
rhumerus -21.8302 -23.977 -0.109788
rradius 30.1594
rwrist 0.852932
rhand -19.441 -3.07107
rfingers 7.12502
rthumb 6.87947 -32.9393
lclavicle 7.25564e-015 -1.66979e-014
lhumerus -19.3474 21.0308 12.9007
lradius 34.652
lwrist -0.70797
lhand -11.4901 5.64344
lfingers 7.12502
lthumb 14.5483 35.1133
rfemur -9.99241 -1.78026 8.41092
rtibia 31.0046
rfoot -10.8554 -26.3668
rtoes -2.25264
lfemur -7.66304 -1.30446 -17.5649
ltibia 24.6623
lfoot -8.92006 17.8329
ltoes -8.64594
261
root -0.0394261 17.8399 -27.3964 2.09185 6.41089 2.5863
lowerback 5.93524 -0.779296 -2.45334
upperback 1.06186 -1.14311 1.91679
thorax -2.14513 -0.549032 3.44408
lowerneck -14.6898 -0.54135 3.56059
upperneck 24.539 -0.357006 -5.02837
head 10.2275 -0.419782 -2.43265
rclavicle 1.00386e-014 3.10104e-014
rhumerus -21.7293 -23.9045 -0.158616
rradius 30.2064
rwrist 0.795533
rhand -19.3546 -3.07049
rfingers 7.12502
rthumb 6.96286 -32.936
lclavicle 1.00386e-014 3.10104e-014
lhumerus -19.5727 21.0473 12.9625
lradius 34.9793
lwrist -0.743741
lhand -11.4823 5.48903
lfingers 7.12502
lthumb 14.5558 34.9583
rfemur -10.0461 -1.72162 8.50391
rtibia 31.0873
rfoot -10.8813 -26.5516
rtoes -2.10037
lfemur -7.70285 -1.3469 -17.4978
ltibia 24.6464
lfoot -8.89986 17.7992
ltoes -8.67333
